<svg width="360" height="360" viewBox="0 0 360 360" xmlns="http://www.w3.org/2000/svg" xmlns:xlink="http://www.w3.org/1999/xlink">
    <defs>
        <path id="of21rfwbaa" d="M0 0h359.165v6.582H0z"/>
        <path d="M0 11.795c0 6.516 5.284 11.8 11.8 11.8 6.516 0 11.795-5.284 11.795-11.8C23.595 5.28 18.315 0 11.8 0 5.284 0 0 5.28 0 11.795m7.976 0A3.822 3.822 0 0 1 11.8 7.976a3.822 3.822 0 0 1 0 7.643 3.826 3.826 0 0 1-3.824-3.824" id="ymxcuvttcc"/>
        <linearGradient x1="50%" y1="99.999%" x2="50%" y2="0%" id="x2j4kphevd">
            <stop stop-color="#791531" offset="0%"/>
            <stop stop-color="#FFE8AC" offset="100%"/>
        </linearGradient>
    </defs>
    <g fill="none" fill-rule="evenodd">
        <path d="M0 0h360v360H0z"/>
        <g transform="translate(0 291.582)">
            <mask id="nr1iuisjpb" fill="#fff">
                <use xlink:href="#of21rfwbaa"/>
            </mask>
            <path d="M359.165 3.291C359.165 1.474 278.763 0 179.582 0 80.402 0 0 1.474 0 3.291 0 5.11 80.402 6.582 179.582 6.582c99.181 0 179.583-1.473 179.583-3.29" fill="#D7D7D7" mask="url(#nr1iuisjpb)"/>
        </g>
        <path fill="#582B39" d="M233.629 266.049h93.74v-34.117h-93.74zM43.276 266.049h93.742v-34.117H43.276z"/>
        <path d="M280.132 281.23c-6.515 0-11.8-5.284-11.8-11.8 0-6.516 5.285-11.796 11.8-11.796 6.516 0 11.796 5.28 11.796 11.796 0 6.516-5.28 11.8-11.796 11.8m0-28.445c-9.193 0-16.645 7.451-16.645 16.645 0 9.194 7.452 16.65 16.645 16.65 9.194 0 16.646-7.456 16.646-16.65 0-9.194-7.452-16.645-16.646-16.645" fill="#FFE9AD"/>
        <path d="M280.132 281.23c-6.515 0-11.8-5.284-11.8-11.8 0-6.516 5.285-11.796 11.8-11.796 6.516 0 11.796 5.28 11.796 11.796 0 6.516-5.28 11.8-11.796 11.8zm0-28.445c-9.193 0-16.645 7.451-16.645 16.645 0 9.194 7.452 16.65 16.645 16.65 9.194 0 16.646-7.456 16.646-16.65 0-9.194-7.452-16.645-16.646-16.645z" stroke="#000" stroke-width=".848"/>
        <path d="M280.132 286.08c-9.193 0-16.645-7.456-16.645-16.65 0-9.194 7.452-16.645 16.645-16.645 9.194 0 16.646 7.451 16.646 16.645 0 9.194-7.452 16.65-16.646 16.65m0-42.093c-14.053 0-25.443 11.395-25.443 25.443 0 14.053 11.39 25.443 25.443 25.443s25.443-11.39 25.443-25.443c0-14.048-11.39-25.443-25.443-25.443" fill="#1A1A1A"/>
        <path d="M280.132 273.254a3.822 3.822 0 1 1-.004-7.642 3.822 3.822 0 0 1 .004 7.642m0-15.62c-6.515 0-11.8 5.28-11.8 11.796 0 6.516 5.285 11.8 11.8 11.8 6.516 0 11.796-5.284 11.796-11.8 0-6.516-5.28-11.795-11.796-11.795" fill="#EFEFEF"/>
        <path d="M271.397 268.347c1.29.459 3.213.69 4.926.805a3.82 3.82 0 0 1 3.81-3.54 3.815 3.815 0 0 1 3.804 3.54c1.713-.116 3.635-.346 4.926-.805 2.115-.751 2.508-1.808 2.57-2.298-1.452-4.867-5.96-8.414-11.3-8.414-5.342 0-9.853 3.548-11.307 8.415.064.49.458 1.546 2.571 2.297" fill="#D5D5D5"/>
        <path d="M283.951 269.43a3.822 3.822 0 1 1-7.643.004 3.822 3.822 0 0 1 7.643-.004" fill="#595456"/>
        <path d="M280.132 272.776a3.824 3.824 0 0 1-3.811-3.585c-.005.08-.012.159-.012.24a3.826 3.826 0 0 0 3.823 3.823 3.822 3.822 0 0 0 3.82-3.824c0-.08-.008-.16-.013-.239a3.818 3.818 0 0 1-3.807 3.585" fill="#7A1631"/>
        <path d="M294.26 269.432c0-7.803-6.325-14.127-14.128-14.127-7.802 0-14.128 6.324-14.128 14.127 0 7.803 6.326 14.129 14.128 14.129 7.803 0 14.128-6.326 14.128-14.129z" stroke="#000" stroke-width="1.696" stroke-linecap="round" stroke-dasharray="1.668,4.171"/>
        <path d="M83.45 281.23c-6.515 0-11.8-5.284-11.8-11.8 0-6.516 5.285-11.796 11.8-11.796 6.516 0 11.796 5.28 11.796 11.796 0 6.516-5.28 11.8-11.795 11.8m0-28.445c-9.194 0-16.646 7.451-16.646 16.645 0 9.194 7.452 16.65 16.646 16.65 9.193 0 16.645-7.456 16.645-16.65 0-9.194-7.452-16.645-16.645-16.645" fill="#FFE9AD"/>
        <path d="M83.45 281.23c-6.515 0-11.8-5.284-11.8-11.8 0-6.516 5.285-11.796 11.8-11.796 6.516 0 11.796 5.28 11.796 11.796 0 6.516-5.28 11.8-11.795 11.8zm0-28.445c-9.193 0-16.645 7.451-16.645 16.645 0 9.194 7.452 16.65 16.646 16.65 9.193 0 16.645-7.456 16.645-16.65 0-9.194-7.452-16.645-16.645-16.645z" stroke="#000" stroke-width=".848"/>
        <path d="M83.45 286.08c-9.193 0-16.645-7.456-16.645-16.65 0-9.194 7.452-16.645 16.646-16.645 9.193 0 16.645 7.451 16.645 16.645 0 9.194-7.452 16.65-16.645 16.65m0-42.093c-14.053 0-25.443 11.395-25.443 25.443 0 14.053 11.39 25.443 25.443 25.443s25.443-11.39 25.443-25.443c0-14.048-11.39-25.443-25.443-25.443" fill="#1A1A1A"/>
        <g transform="translate(71.65 257.635)">
            <mask id="9h47ozbx5e" fill="#fff">
                <use xlink:href="#ymxcuvttcc"/>
            </mask>
            <path d="M0 11.795c0 6.516 5.284 11.8 11.8 11.8 6.516 0 11.795-5.284 11.795-11.8C23.595 5.28 18.315 0 11.8 0 5.284 0 0 5.28 0 11.795m7.976 0A3.822 3.822 0 0 1 11.8 7.976a3.822 3.822 0 0 1 0 7.643 3.826 3.826 0 0 1-3.824-3.824" fill="url(#x2j4kphevd)" mask="url(#9h47ozbx5e)"/>
        </g>
        <g>
            <path d="M74.715 268.347c1.291.459 3.213.69 4.926.805a3.82 3.82 0 0 1 3.81-3.54 3.815 3.815 0 0 1 3.804 3.54c1.713-.116 3.635-.346 4.926-.805 2.115-.751 2.508-1.808 2.571-2.298-1.453-4.867-5.961-8.414-11.301-8.414-5.341 0-9.852 3.548-11.307 8.415.064.49.458 1.546 2.571 2.297" fill="#D5D5D5"/>
            <path d="M94.752 266.05c-.063.489-.455 1.545-2.571 2.297-1.29.459-3.212.69-4.926.805.007.092.014.184.014.278a3.822 3.822 0 0 1-3.818 3.824 3.826 3.826 0 0 1-3.824-3.824c0-.094.008-.186.014-.278-1.713-.116-3.635-.346-4.926-.805-2.113-.751-2.507-1.806-2.57-2.297a11.797 11.797 0 0 0-.495 3.38c0 6.516 5.285 11.8 11.8 11.8 6.517 0 11.796-5.284 11.796-11.8 0-1.176-.174-2.31-.494-3.38" fill="#EFEFEF"/>
            <path d="M87.27 269.43a3.822 3.822 0 1 1-7.644.004 3.822 3.822 0 0 1 7.643-.004" fill="#595456"/>
            <path d="M83.45 272.776a3.824 3.824 0 0 1-3.811-3.585c-.005.08-.012.159-.012.24a3.826 3.826 0 0 0 3.824 3.823 3.822 3.822 0 0 0 3.819-3.824c0-.08-.008-.16-.013-.239a3.818 3.818 0 0 1-3.806 3.585" fill="#7A1631"/>
            <path d="M97.579 269.432c0-7.803-6.326-14.127-14.128-14.127-7.803 0-14.128 6.324-14.128 14.127 0 7.803 6.325 14.129 14.128 14.129 7.802 0 14.128-6.326 14.128-14.129z" stroke="#000" stroke-width="1.696" stroke-linecap="round" stroke-dasharray="1.668,4.171"/>
            <path d="M252.702 181.827a3.669 3.669 0 0 1-3.669-3.67v-19.712c0-1.688 1.369-3.057 2.565-3.057h37.808c2.192 0 3.786.823 4.77 2.208l13.003 21.454c.828 1.163-.004 2.777-1.432 2.777h-53.045zm-50.423 0a3.207 3.207 0 0 1-3.207-3.207v-19.797a3.207 3.207 0 0 1 3.207-3.207h31.852a3.207 3.207 0 0 1 3.207 3.207v19.797a3.207 3.207 0 0 1-3.207 3.207H202.28zm-44.004 0a3.207 3.207 0 0 1-3.206-3.207v-19.797a3.207 3.207 0 0 1 3.206-3.207h31.853a3.207 3.207 0 0 1 3.206 3.207v19.797a3.207 3.207 0 0 1-3.206 3.207h-31.853zm-44.493 0a3.207 3.207 0 0 1-3.207-3.207v-19.797a3.207 3.207 0 0 1 3.207-3.207h31.852a3.207 3.207 0 0 1 3.207 3.207v19.797a3.207 3.207 0 0 1-3.207 3.207h-31.852zm-50.42 0a2.955 2.955 0 0 1-2.853-3.725l5.27-19.543a3.978 3.978 0 0 1 3.84-2.943h32.012a3.207 3.207 0 0 1 3.206 3.207v19.797a3.206 3.206 0 0 1-3.206 3.207H63.362zm277.49 4.916c-4.492-9.69-11.724-18.98-17.008-25.08-3.829-4.42-6.636-7.16-6.636-7.16-6.177-.425-16.02-.406-29.648-.406H30.324c-3.967 9.332-9.232 27.338-11.719 57.297-1.905 22.927-.893 44.016-.315 52.652a4.412 4.412 0 0 0 4.406 4.12h28.078a6.868 6.868 0 0 0 6.177-3.853l1.733-3.542a6.63 6.63 0 0 1 5.962-3.723l37.152-.005a6.636 6.636 0 0 1 5.967 3.728l1.733 3.542a6.868 6.868 0 0 0 6.177 3.852H246.01a6.868 6.868 0 0 0 6.177-3.852l4.964-10.154a20.541 20.541 0 0 1 7.772-8.52 17.563 17.563 0 0 1 4.416-1.914 17.765 17.765 0 0 1 4.764-.654h12.057c3.237 0 6.411.888 9.18 2.568a20.558 20.558 0 0 1 7.771 8.52l4.965 10.154a6.867 6.867 0 0 0 6.177 3.852h32.904a6.84 6.84 0 0 0 6.84-6.836v-24.368c0-15.457-5.404-33.506-13.146-50.218z" fill="#625645"/>
            <path d="M354 236.96v24.37a6.84 6.84 0 0 1-6.84 6.835h-32.905a6.867 6.867 0 0 1-6.177-3.852l-4.964-10.154a20.54 20.54 0 0 0-7.771-8.52 17.694 17.694 0 0 0-9.18-2.569h-12.058c-1.618 0-3.222.225-4.764.654a17.613 17.613 0 0 0-4.416 1.915 20.541 20.541 0 0 0-7.771 8.52l-4.964 10.154a6.866 6.866 0 0 1-6.177 3.852H115.676a6.867 6.867 0 0 1-6.177-3.852l-1.732-3.542a6.636 6.636 0 0 0-5.967-3.728l-37.152.004a6.63 6.63 0 0 0-5.963 3.724l-1.732 3.542a6.867 6.867 0 0 1-6.178 3.852H22.698a4.411 4.411 0 0 1-4.406-4.12c-.578-8.635-1.59-29.724.315-52.651.592-7.127 1.337-13.577 2.19-19.39h270.636c17.93 0 30.45 1.508 44.895 7.723 9.566 4.115 13.237 10.889 14.626 14.99.296 1.168.568 2.328.821 3.488 1.428 6.487 2.225 12.812 2.225 18.756" fill="#DE6D68"/>
            <path d="M347.078 264.065h-29.49a6.287 6.287 0 0 1-5.996-4.397l-1.266-4.02c-3.331-10.558-9.948-19.132-25.51-19.375l-31.872-.005a2.713 2.713 0 0 1-2.62-2.711v-41.553h41.109c17.93 0 30.45 1.508 44.895 7.723a30.88 30.88 0 0 1 4.549 2.411s4.52 13.547 5.36 26.483c.841 12.932.841 35.444.841 35.444" fill="#DE6D68"/>
            <path d="M318.065 263.587a6.287 6.287 0 0 1-5.996-4.396l-1.265-4.02c-3.332-10.558-9.948-19.132-25.51-19.375l-31.873-.005a2.713 2.713 0 0 1-2.62-2.711v-41.076h-.478v41.553c0 1.46 1.16 2.664 2.621 2.711l31.873.005c15.561.243 22.178 8.817 25.51 19.376l1.265 4.02a6.287 6.287 0 0 0 5.995 4.396h29.49v-.478h-29.012z" fill="#8E4949"/>
            <path d="M347.555 264.065h-.954c0-.225-.01-22.645-.84-35.413-.826-12.727-5.292-26.229-5.337-26.363l.906-.303c.045.137 4.55 13.755 5.385 26.605.83 12.798.84 35.248.84 35.474" fill="#8E4949"/>
            <path d="M335.668 186.294a3.181 3.181 0 0 1-2.612-1.36l-16.783-23.94c-.635-.906.009-2.152 1.117-2.152h3.948c.763.84 1.608 1.785 2.506 2.821 5.203 6.005 12.291 15.103 16.793 24.631h-4.97zm-13.314.633h-63.288a4.377 4.377 0 0 1-4.376-4.377V162.82a3.647 3.647 0 0 1 3.646-3.647h45.109c2.027 0 3.93.98 5.104 2.633l15.513 21.809c.988 1.389-.005 3.313-1.708 3.313zm-82.554-3.396a3.396 3.396 0 0 1-3.395 3.396h-33.73a3.396 3.396 0 0 1-3.396-3.396v-20.964a3.396 3.396 0 0 1 3.395-3.395h33.73a3.396 3.396 0 0 1 3.396 3.395v20.964zm-45.586 0a3.396 3.396 0 0 1-3.395 3.396h-33.73a3.396 3.396 0 0 1-3.396-3.396v-20.964a3.396 3.396 0 0 1 3.396-3.395h33.73a3.396 3.396 0 0 1 3.395 3.395v20.964zm-52.173 0a3.392 3.392 0 0 1-3.394 3.393h-33.73a3.392 3.392 0 0 1-3.394-3.393v-20.966a3.395 3.395 0 0 1 3.394-3.394h33.73a3.395 3.395 0 0 1 3.394 3.394v20.966zm-45.583 0a3.395 3.395 0 0 1-3.398 3.393H52.537a3.127 3.127 0 0 1-3.021-3.943l5.58-20.693a4.215 4.215 0 0 1 4.067-3.117H93.06a3.399 3.399 0 0 1 3.398 3.394v20.966zm244.395 3.212c-4.491-9.69-11.724-18.98-17.008-25.08-3.828-4.42-6.635-7.16-6.635-7.16-6.177-.425-16.02-.406-29.648-.406H30.326c-3.022 7.112-6.802 19.266-9.528 37.907h270.635c17.93 0 30.45 1.508 44.895 7.723 9.566 4.115 13.237 10.889 14.626 14.99-2.334-9.295-5.866-18.838-10.1-27.974z" fill="#FFE9AD"/>
            <path fill="#8E4949" d="m340.482 202.407-33.018-47.963.786-.54 33.018 47.963z"/>
            <path d="M287.56 154.097H29.074s4.888-6.698 16.086-9.523c11.194-2.826 54.003-4.406 132.313-4.406 78.31 0 121.052 1.838 132.313 4.406 10.443 2.38 14.845 6.526 16.701 9.598l-38.927-.075z" fill="#FFE9AD"/>
            <path d="M326.487 154.574H29.073a.477.477 0 1 1 0-.954h297.414a.477.477 0 1 1 0 .954" fill="#8E4949"/>
            <path d="M246.963 192.004v71.812a4.35 4.35 0 0 1-4.349 4.349h-91.733a4.35 4.35 0 0 1-4.353-4.349v-71.812h100.435z" fill="#DE6D68"/>
            <path d="M239.798 183.53a3.392 3.392 0 0 1-3.394 3.395h-33.73a3.392 3.392 0 0 1-3.394-3.394v-20.966a3.395 3.395 0 0 1 3.394-3.394h33.73a3.395 3.395 0 0 1 3.394 3.394v20.966zm-45.583 0a3.396 3.396 0 0 1-3.398 3.395h-33.73a3.395 3.395 0 0 1-3.394-3.394v-20.966a3.399 3.399 0 0 1 3.394-3.394h33.73a3.4 3.4 0 0 1 3.398 3.394v20.966zm48.4-29.357H150.88a4.35 4.35 0 0 0-4.353 4.349v33.481h100.435v-33.481a4.35 4.35 0 0 0-4.349-4.349z" fill="#FFE9AD"/>
            <path d="M90.95 86.202v17.183a4.356 4.356 0 0 0 4.355 4.356h47.575a4.356 4.356 0 0 0 4.356-4.356V86.202a4.356 4.356 0 0 0-4.356-4.356H95.305a4.356 4.356 0 0 0-4.356 4.356M98.637 81.846a3.347 3.347 0 0 1 3.347-3.347h34.217a3.347 3.347 0 0 1 3.347 3.347h-40.91z" fill="#1F8A70"/>
            <path fill="#004358" d="M98.637 82.04h40.91v-.388h-40.91zM98.458 84.371a3.712 3.712 0 0 0-3.708 3.708v13.428a3.712 3.712 0 0 0 3.708 3.708h41.27a3.712 3.712 0 0 0 3.707-3.708V88.079a3.712 3.712 0 0 0-3.708-3.708h-41.27zm41.27 21.233h-41.27a4.1 4.1 0 0 1-4.096-4.097V88.079a4.1 4.1 0 0 1 4.096-4.096h41.27a4.1 4.1 0 0 1 4.096 4.096v13.428a4.101 4.101 0 0 1-4.097 4.097z"/>
            <path d="M122.057 97.155h-5.929c-1.03 0-1.869-.749-1.869-1.669v-1.717a.798.798 0 0 1 1.597 0v1.717c0 .006.1.073.272.073h5.93c.166 0 .263-.076.277-.102l-.006-1.688a.798.798 0 0 1 1.596 0v1.717c0 .92-.838 1.67-1.868 1.67" fill="#004358"/>
            <path d="M91.26 134.27h67.223a2.974 2.974 0 0 0 2.974-2.975v-20.388a2.974 2.974 0 0 0-2.974-2.974H91.26a2.974 2.974 0 0 0-2.974 2.974v20.388a2.974 2.974 0 0 0 2.974 2.974" fill="#E9B27C"/>
            <path d="M155.813 107.933v26.336h2.67a2.974 2.974 0 0 0 2.974-2.974v-20.388a2.975 2.975 0 0 0-2.974-2.974h-2.67zM88.285 110.907v20.387a2.974 2.974 0 0 0 2.974 2.975h2.67v-26.336h-2.67a2.975 2.975 0 0 0-2.974 2.974" fill="#B28252"/>
            <path fill="#FFD7B0" d="M93.93 134.269h61.883v-26.337H93.929z"/>
            <path fill="#CE975F" d="M93.929 121.325h61.884v-.447H93.93z"/>
            <path d="M99.176 122.444h6.632c.604 0 1.095-.49 1.095-1.095v-3.194c0-.605-.49-1.095-1.095-1.095h-6.632c-.605 0-1.095.49-1.095 1.095v3.194c0 .604.49 1.095 1.095 1.095M143.935 122.444h6.632c.605 0 1.095-.49 1.095-1.095v-3.194c0-.605-.49-1.095-1.095-1.095h-6.632c-.605 0-1.095.49-1.095 1.095v3.194c0 .604.49 1.095 1.095 1.095" fill="#B28252"/>
            <path d="M101.153 122.188v-3.427h2.572v3.33a1.926 1.926 0 1 1-2.572.096M145.912 122.188v-3.427h2.571v3.33a1.926 1.926 0 1 1-2.571.096" fill="#FED293"/>
            <path d="M119.08 115.933h10.004a3.3 3.3 0 0 1 3.297 3.297v3.556a1.492 1.492 0 0 1-2.983 0v-3.556a.314.314 0 0 0-.314-.313H119.08a.314.314 0 0 0-.314.313v3.556a1.491 1.491 0 1 1-2.983 0v-3.556a3.3 3.3 0 0 1 3.297-3.297" fill="#59363C"/>
            <path d="M87.382 129.528H53.73v2.67a2.974 2.974 0 0 0 2.974 2.975h27.705a2.975 2.975 0 0 0 2.974-2.975v-2.67zM84.408 62H56.704a2.974 2.974 0 0 0-2.975 2.974v2.67h33.654v-2.67A2.974 2.974 0 0 0 84.408 62" fill="#292633"/>
            <path fill="#959595" d="M87.383 67.644H53.729v61.884h33.653z"/>
            <path fill="#41505E" d="M70.05 129.529h.447V67.644h-.447z"/>
            <path d="M68.932 72.89v6.633c0 .604.49 1.094 1.094 1.094h3.195c.604 0 1.094-.49 1.094-1.094V72.89c0-.604-.49-1.094-1.094-1.094h-3.195c-.604 0-1.094.49-1.094 1.094M68.931 117.65v6.632c0 .605.49 1.095 1.095 1.095h3.194c.605 0 1.095-.49 1.095-1.095v-6.632c0-.605-.49-1.095-1.095-1.095h-3.194c-.604 0-1.095.49-1.095 1.095" fill="#41505E"/>
            <path d="M69.187 74.868h3.427v2.572h-3.33a1.926 1.926 0 1 1-.096-2.572M69.187 119.627h3.426v2.572h-3.33a1.926 1.926 0 1 1-.096-2.572" fill="#292633"/>
            <path d="M71.982 106.096h-3.555a3.3 3.3 0 0 1-3.298-3.296V92.795a3.3 3.3 0 0 1 3.298-3.297h3.555a1.491 1.491 0 1 1 0 2.984h-3.555a.314.314 0 0 0-.314.313V102.8c0 .172.14.313.314.313h3.555a1.492 1.492 0 0 1 0 2.983" fill="#41505E"/>
            <path d="M56.393 125.859a3.36 3.36 0 0 0-3.356 3.355v2.023a3.36 3.36 0 0 0 3.356 3.355h109.68a3.359 3.359 0 0 0 3.355-3.355v-2.023a3.359 3.359 0 0 0-3.356-3.355H56.393zm109.68 10.165H56.392a4.793 4.793 0 0 1-4.788-4.787v-2.023a4.794 4.794 0 0 1 4.788-4.788h109.68a4.793 4.793 0 0 1 4.787 4.788v2.023a4.792 4.792 0 0 1-4.788 4.787z" fill="#C9C9C9"/>
            <path fill="#C9C9C9" d="M44.867 132.858H177.6v-1.432H44.867z"/>
            <path fill="#C9C9C9" d="M83.436 135.308h1.432v-10.165h-1.432zM139.764 135.308h1.432v-10.165h-1.432zM167 149.64h1.433v-14.68h-1.432zM110.516 149.64h1.433v-14.332h-1.433zM54.3 149.64h1.433v-14.332H54.3z"/>
            <path d="M270.577 205.275c0 1.733-3.009 3.139-6.72 3.139-3.712 0-6.72-1.406-6.72-3.139 0-1.733 3.008-3.138 6.72-3.138 3.711 0 6.72 1.405 6.72 3.138" fill="#EC9897"/>
            <path d="M265.07 205.22c0-.72-9.189-2.055-9.612-1.639-.423.417-.452 1.64-.452 1.64s.029 1.222.452 1.638c.423.416 9.612-.918 9.612-1.639" fill="#353535"/>
            <path d="M239.588 205.104c0 1.541.491 3.079.491 3.079l-6.781 4.05c-3.538-2.631-3.229-7.129-3.229-7.129s-.309-4.497 3.229-7.129l6.781 4.051s-.491 1.538-.491 3.078" fill="#EC9897"/>
            <path d="M242.953 203.697v3.047s-9.262-.394-9.262-1.524 9.262-1.523 9.262-1.523" fill="#353535"/>
            <path d="M355.87 237.42c0-4.635-1.252-8.393-2.797-8.393-1.546 0-2.798 3.758-2.798 8.393 0 4.635 1.252 8.393 2.798 8.393 1.545 0 2.797-3.758 2.797-8.393" fill="#FFDF97"/>
            <path d="M44.346 181.208H32.977a.706.706 0 0 0-.704.64c-.029.19-.045.38-.05.567a.42.42 0 0 0 .419.435h11.316c.34 0 .632-.243.694-.579l.105-.57a.418.418 0 0 0-.411-.493zm-11.452-3.076-.128.72a.386.386 0 0 0 .38.452H44.53a.802.802 0 0 0 .787-.657l.134-.721a.385.385 0 0 0-.379-.456H33.683c-.388 0-.72.28-.789.662zm.69-3.558c-.06.291-.119.578-.175.861a.27.27 0 0 0 .266.322h11.332c.5 0 .93-.353 1.03-.842.06-.286.12-.571.182-.855a.27.27 0 0 0-.264-.327h-11.34c-.498 0-.929.352-1.03.841zm-.438 10.371c-.142 0-.234.158-.157.277a4.864 4.864 0 0 0 4.11 2.251h4.7c1.1 0 2.043-.785 2.241-1.867l.04-.216a.376.376 0 0 0-.37-.445H33.145zm13.687-13.492c.09-.348.181-.696.277-1.043a.325.325 0 0 0-.313-.415H35.403c-.464 0-.864.318-.975.768-.067.272-.17.721-.244 1.047-.047.206.11.4.32.4h11.36c.459 0 .856-.312.97-.757zm3.681-10.47.074-.191c.36-.94-.334-1.95-1.34-1.95h-6.18a6.28 6.28 0 0 0-4.46 1.858c-.319.321-.085.872.367.872h10.683c.38 0 .72-.235.856-.59zm-14.95 5.861c-.125.368-.249.75-.37 1.145a.52.52 0 0 0 .494.675h11.337c.364 0 .69-.229.809-.573.128-.367.28-.792.406-1.14a.518.518 0 0 0-.488-.693H36.377a.86.86 0 0 0-.813.586zm2.494-4.323h10.877a.68.68 0 0 1 .636.924l-.361.94a1.14 1.14 0 0 1-1.065.733H37.208a.682.682 0 0 1-.627-.949c.15-.35.298-.68.443-.993.188-.402.59-.655 1.034-.655z" fill="#DB716D"/>
            <path d="M32.989 185.222a4.864 4.864 0 0 0 4.11 2.251h.174c-.02-.621-.018-1.464.037-2.528h-4.164c-.142 0-.234.158-.157.277M32.28 181.806l-.006.041c-.03.191-.046.38-.052.568a.42.42 0 0 0 .42.435h4.828c.051-.512.115-1.062.19-1.643h-4.682a.707.707 0 0 0-.698.6M32.894 178.131c-.044.245-.087.485-.128.722a.385.385 0 0 0 .38.45h4.793c.094-.582.201-1.194.321-1.833h-4.577a.803.803 0 0 0-.789.661M43.068 158.842a6.284 6.284 0 0 0-4.46 1.858c-.32.321-.085.872.367.872h4.141c.616-1.235 1.173-2.112 1.64-2.73h-1.688zM35.564 166.845a43.27 43.27 0 0 0-.37 1.145.52.52 0 0 0 .494.674h4.729c.26-.865.52-1.667.775-2.406h-4.815a.86.86 0 0 0-.813.587M37.024 163.176c-.145.312-.294.643-.443.993a.682.682 0 0 0 .627.949H41.6c.366-.983.722-1.846 1.064-2.598h-4.607c-.444 0-.846.254-1.034.656M33.585 174.574c-.06.291-.12.578-.176.861a.27.27 0 0 0 .266.322h4.929c.137-.65.288-1.324.454-2.024h-4.442c-.5 0-.93.352-1.031.841M34.428 170.763c-.067.272-.17.721-.245 1.047-.046.206.11.4.321.4h4.93l.152-.593c.148-.565.295-1.1.442-1.622h-4.625c-.464 0-.864.318-.975.768" fill="#582B39"/>
            <path d="M28.59 277.907h-5.894v-3.342h5.894c4.936 0 6.045-1.11 7.45-2.514 1.809-1.809 1.652-3.785 1.65-3.805l3.321-.358c.016.144.348 3.569-2.608 6.525-2.045 2.046-3.947 3.494-9.813 3.494" fill="#000"/>
            <path d="M351.99 219.024a.646.646 0 0 0-.83.065c-.294.288-.656.802-.84 1.672-.231 1.103-.147 2.264-.07 2.892.03.248.28.402.516.318 1.153-.409 4.146-1.534 4.112-2.187-.034-.638-2.038-2.148-2.887-2.76M338.54 246.283h-4.92a1.682 1.682 0 0 1-1.68-1.682v-.87c0-.929.752-1.682 1.68-1.682h4.92c.928 0 1.681.753 1.681 1.683v.869c0 .928-.753 1.682-1.682 1.682" fill="#FC7D49"/>
            <path d="M357.986 262.834H326.45a.988.988 0 0 1-.988-.989v-.778c0-.546.442-.99.988-.99h31.537a.99.99 0 0 1 .99.99v.778a.989.989 0 0 1-.99.99M359.116 270.524h-30.863a.884.884 0 0 1-.883-.884v-.917c0-.488.395-.883.883-.883h30.863c.488 0 .884.395.884.883v.917a.884.884 0 0 1-.884.884" fill="#000"/>
            <path d="M358.356 265.337H329.16a.619.619 0 0 1-.619-.62v-1.264c0-.342.277-.619.619-.619h29.197a.62.62 0 0 1 .62.62v1.264a.62.62 0 0 1-.62.619" fill="#000"/>
            <path d="M358.151 267.84h-28.787a.824.824 0 0 1-.824-.824v-.855c0-.455.369-.824.824-.824h28.787c.455 0 .824.369.824.824v.855c0 .455-.369.824-.824.824M32.363 263.204H12.336c-.724 0-1.31-.587-1.31-1.311v-.874c0-.724.586-1.311 1.31-1.311h20.027c.724 0 1.31.587 1.31 1.31v.875c0 .724-.586 1.31-1.31 1.31M30.876 271.502H12.542a1.152 1.152 0 0 1-1.151-1.152v-.654c0-.636.515-1.151 1.151-1.151H32.84v.993c0 1.084-.879 1.964-1.964 1.964" fill="#000"/>
            <path fill="#000" d="M13.497 269.33H32.84v-6.912H13.497z"/>
            <g fill="#FFE9AD">
                <path d="M154.462 160.417a3.389 3.389 0 0 0-1.246 2.625v20.966a3.395 3.395 0 0 0 3.394 3.394h33.73c1.06 0 2.007-.486 2.63-1.246a3.388 3.388 0 0 1-2.154.768h-33.73a3.395 3.395 0 0 1-3.393-3.393v-20.966c0-.814.289-1.562.769-2.148M200.048 160.417a3.389 3.389 0 0 0-1.245 2.625v20.966a3.392 3.392 0 0 0 3.394 3.394h33.73c1.06 0 2.004-.485 2.626-1.245a3.38 3.38 0 0 1-2.15.768h-33.729a3.392 3.392 0 0 1-3.394-3.395v-20.965c0-.815.288-1.563.768-2.148"/>
                <path d="M242.614 154.173h-91.733c-1.325 0-2.51.594-3.308 1.526a4.335 4.335 0 0 1 2.83-1.048h91.734a4.35 4.35 0 0 1 4.349 4.348v105.294c0 1.08-.396 2.065-1.047 2.825a4.337 4.337 0 0 0 1.524-3.302V158.522a4.35 4.35 0 0 0-4.349-4.349"/>
            </g>
            <path d="M350.954 215.194a.478.478 0 0 1-.452-.324c-1.262-3.728-4.807-10.593-14.362-14.704-14.94-6.428-27.705-7.686-44.707-7.686H20.798a.476.476 0 1 1 0-.954h270.635c17.127 0 29.994 1.27 45.084 7.763 9.895 4.256 13.576 11.396 14.89 15.274a.478.478 0 0 1-.453.63" fill="#8E4949"/>
        </g>
    </g>
</svg>
